<?xml version="1.0" encoding="utf-8"?>
<!-- Generator: Adobe Illustrator 22.1.0, SVG Export Plug-In . SVG Version: 6.00 Build 0)  -->
<svg version="1.1" id="Слой_1" xmlns="http://www.w3.org/2000/svg" xmlns:xlink="http://www.w3.org/1999/xlink" x="0px" y="0px"
	 viewBox="0 0 800 800" style="enable-background:new 0 0 800 800;" xml:space="preserve">
<style type="text/css">
	.st0{display:none;}
	.st1{display:inline;}
	.st2{fill:#F272B1;}
	.st3{fill:#8D3E9E;}
	.st4{fill:#443C9C;}
	.st5{fill:#0068B7;}
	.st6{fill:#00CAF4;}
</style>
<g class="st0">
	<g class="st1">
		
			<rect x="-68.3" y="516.7" transform="matrix(1.653385e-03 -1 1 1.653385e-03 -584.9752 555.5207)" class="st2" width="108" height="108"/>
	</g>
	<g class="st1">
		
			<rect x="188.9" y="672.7" transform="matrix(1.653385e-03 -1 1 1.653385e-03 -484.2218 968.4411)" class="st3" width="108" height="108"/>
	</g>
	<g class="st1">
		
			<rect x="38.7" y="409.9" transform="matrix(1.653385e-03 -1 1 1.653385e-03 -371.331 555.8755)" class="st3" width="108" height="108"/>
	</g>
	<g class="st1">
		
			<rect x="108.9" y="472.1" transform="matrix(1.653385e-03 -1 1 1.653385e-03 -363.4472 688.1298)" class="st4" width="108" height="108"/>
	</g>
	<g class="st1">
		
			<rect x="-68.7" y="261.7" transform="matrix(1.653385e-03 -1 1 1.653385e-03 -330.4395 300.4784)" class="st5" width="108" height="108"/>
	</g>
	<g class="st1">
		
			<rect x="146.1" y="302.9" transform="matrix(1.653385e-03 -1 1 1.653385e-03 -157.1518 556.4098)" class="st4" width="108" height="108"/>
	</g>
	<g class="st1">
		
			<rect x="253.7" y="195.3" transform="matrix(1.653385e-03 -1 1 1.653385e-03 57.9558 556.587)" class="st5" width="108" height="108"/>
	</g>
	<g class="st1">
		
			<rect x="253.3" y="410.1" transform="matrix(1.653385e-03 -1 1 1.653385e-03 -157.3291 770.5895)" class="st6" width="108" height="108"/>
	</g>
	<g class="st1">
		
			<rect x="39.1" y="155.3" transform="matrix(1.653385e-03 -1 1 1.653385e-03 -116.3325 302.0109)" class="st6" width="108" height="108"/>
	</g>
	<g class="st1">
		
			<rect x="85.7" y="227.7" transform="matrix(1.653385e-03 -1 1 1.653385e-03 -142.2302 420.9983)" class="st2" width="108" height="108"/>
	</g>
	<g class="st1">
		
			<rect x="92.7" y="-54.1" transform="matrix(1.653385e-03 -1 1 1.653385e-03 146.5791 146.6427)" class="st3" width="108" height="108"/>
	</g>
</g>
<g class="st0">
	<g class="st1">
		<rect x="450" y="214" class="st2" width="108" height="108"/>
	</g>
	<g class="st1">
		<rect x="450" y="322" class="st3" width="108" height="108"/>
	</g>
	<g class="st1">
		<rect x="342" y="214" class="st3" width="108" height="108"/>
	</g>
	<g class="st1">
		<rect x="234" y="322" class="st4" width="108" height="108"/>
	</g>
	<g class="st1">
		<rect x="450" y="538" class="st5" width="108" height="108"/>
	</g>
	<g class="st1">
		<rect x="342" y="430" class="st4" width="108" height="108"/>
	</g>
	<g class="st1">
		<rect x="126" y="214" class="st5" width="108" height="108"/>
	</g>
	<g class="st1">
		<rect x="234" y="538" class="st6" width="108" height="108"/>
	</g>
	<g class="st1">
		<rect x="126" y="430" class="st6" width="108" height="108"/>
	</g>
</g>
<g>
	
		<rect x="399.7" y="297.7" transform="matrix(1.653385e-03 -1 1 1.653385e-03 101.2507 804.8821)" class="st2" width="108" height="108"/>
</g>
<g>
	
		<rect x="262.9" y="0.7" transform="matrix(1.653385e-03 -1 1 1.653385e-03 261.655 371.5521)" class="st3" width="108" height="108"/>
</g>
<g>
	
		<rect x="628.7" y="384.9" transform="matrix(1.653385e-03 -1 1 1.653385e-03 242.6935 1120.9161)" class="st3" width="108" height="108"/>
</g>
<g>
	
		<rect x="453.9" y="449.1" transform="matrix(1.653385e-03 -1 1 1.653385e-03 3.9824 1010.1674)" class="st4" width="108" height="108"/>
</g>
<g>
	
		<rect x="400.3" y="81.7" transform="matrix(1.653385e-03 -1 1 1.653385e-03 317.7848 589.7754)" class="st5" width="108" height="108"/>
</g>
<g>
	
		<rect x="511.1" y="189.9" transform="matrix(1.653385e-03 -1 1 1.653385e-03 320.2446 808.5961)" class="st4" width="108" height="108"/>
</g>
<g>
	
		<rect x="691.7" y="154.3" transform="matrix(1.653385e-03 -1 1 1.653385e-03 536.2316 953.6542)" class="st5" width="108" height="108"/>
</g>
<g>
	
		<rect x="714.6" y="352.7" transform="matrix(1.653388e-03 -1 1 1.653388e-03 382.3094 1153.0503)" class="st4" width="108" height="64.7"/>
</g>
<g>
	
		<rect x="520.1" y="0.3" transform="matrix(1.653385e-03 -1 1 1.653385e-03 518.872 628.2665)" class="st6" width="108" height="108"/>
</g>
<g>
	
		<rect x="619.7" y="81.7" transform="matrix(1.653385e-03 -1 1 1.653385e-03 536.8867 809.239)" class="st2" width="108" height="108"/>
</g>
<g>
	
		<rect x="691.7" y="-0.1" transform="matrix(1.653385e-03 -1 1 1.653385e-03 690.5888 799.5526)" class="st3" width="108" height="108"/>
</g>
<g>
	
		<rect x="648.7" y="570.7" transform="matrix(1.653385e-03 -1 1 1.653385e-03 76.8394 1326.4304)" class="st2" width="108" height="108"/>
</g>
</svg>
